<?xml version="1.0" encoding="UTF-8"?>
<svg version="1.1" xmlns="http://www.w3.org/2000/svg" width="78" height="60">
<path d="M0 0 C25.74 0 51.48 0 78 0 C78 19.8 78 39.6 78 60 C52.26 60 26.52 60 0 60 C0 40.2 0 20.4 0 0 Z M21 7 C19.99782936 10.58327753 19.99782936 10.58327753 21 14 C24.27555608 14.47001033 24.27555608 14.47001033 28.0625 14.625 C29.99802734 14.73714844 29.99802734 14.73714844 31.97265625 14.8515625 C33.47119141 14.92503906 33.47119141 14.92503906 35 15 C31.62983829 18.88686842 31.62983829 18.88686842 28.73828125 19.40625 C27.53751953 19.45265625 27.53751953 19.45265625 26.3125 19.5 C19.85382171 20.53645952 17.22407052 24.89211049 13.6171875 29.859375 C11.84610858 33.29886159 11.49256679 35.19158024 12 39 C14.72667613 42.71819473 16.27267969 43.84499731 20.8125 44.8125 C21.864375 44.874375 22.91625 44.93625 24 45 C24 46.65 24 48.3 24 50 C23.566875 49.505 23.13375 49.01 22.6875 48.5 C21.00259517 46.66781808 21.00259517 46.66781808 18 47 C18.27540704 50.81813447 18.27540704 50.81813447 20 54 C24.47268963 54.281489 28.95700735 54.23181434 33.4375 54.25 C34.70400391 54.270625 35.97050781 54.29125 37.27539062 54.3125 C38.48259766 54.31765625 39.68980469 54.3228125 40.93359375 54.328125 C42.04790771 54.3374707 43.16222168 54.34681641 44.31030273 54.35644531 C45.19790283 54.23881836 46.08550293 54.12119141 47 54 C47.66 53.01 48.32 52.02 49 51 C48.195625 50.7525 47.39125 50.505 46.5625 50.25 C44 49 44 49 43.1875 46.875 C43.125625 46.25625 43.06375 45.6375 43 45 C44.051875 44.938125 45.10375 44.87625 46.1875 44.8125 C50.7508955 43.83997309 51.80381099 42.27414484 55 39 C57.62730453 37.74538828 60.21812214 36.89585897 63 36 C63.66 38.31 64.32 40.62 65 43 C66.65 43.33 68.3 43.66 70 44 C69.88140625 43.15179688 69.7628125 42.30359375 69.640625 41.4296875 C68.58668278 31.83881327 69.76609413 25.1326612 73 16 C71.68 16 70.36 16 69 16 C67.02 19.96 65.04 23.92 63 28 C56.1640625 28.29296875 56.1640625 28.29296875 54 28 C52 25 52 25 51.5 21.4375 C51.34152243 17.9428808 51.34152243 17.9428808 49 16 C46.34462628 15.43479997 43.70855287 15.26211802 41 15 C45.95 14.67 50.9 14.34 56 14 C56 11.69 56 9.38 56 7 C54.94683594 7.25136719 53.89367188 7.50273438 52.80859375 7.76171875 C42.16975926 10.08826583 34.52234226 9.69272538 24 7 C23.01 7 22.02 7 21 7 Z " fill="#000000" transform="translate(0,0)"/>
<path d="M0 0 C2.375 0.3125 2.375 0.3125 3.375 1.3125 C3.41592937 3.64547433 3.41741723 5.97955225 3.375 8.3125 C0.075 8.3125 -3.225 8.3125 -6.625 8.3125 C-4.68634969 0.55789877 -4.68634969 0.55789877 0 0 Z " fill="#000000" transform="translate(24.625,25.6875)"/>
<path d="M0 0 C1.134375 0.020625 2.26875 0.04125 3.4375 0.0625 C4.0975 1.7125 4.7575 3.3625 5.4375 5.0625 C4.4375 6.0625 4.4375 6.0625 2.37109375 6.16015625 C1.54738281 6.14855469 0.72367188 6.13695312 -0.125 6.125 C-0.95128906 6.11597656 -1.77757812 6.10695313 -2.62890625 6.09765625 C-3.26699219 6.08605469 -3.90507812 6.07445312 -4.5625 6.0625 C-4.605221 4.39638095 -4.60313832 2.72867115 -4.5625 1.0625 C-3.5625 0.0625 -3.5625 0.0625 0 0 Z " fill="#000000" transform="translate(33.5625,43.9375)"/>
</svg>
