<?xml version="1.0" encoding="UTF-8"?>
<svg version="1.1" xmlns="http://www.w3.org/2000/svg" width="74" height="68">
<path d="M0 0 C24.42 0 48.84 0 74 0 C74 22.44 74 44.88 74 68 C49.58 68 25.16 68 0 68 C0 45.56 0 23.12 0 0 Z M12 11 C12.55058933 14.626024 13.71928268 16.00540726 16.625 18.1875 C20.48518862 20.95373625 23.29248368 21.80385349 28 22 C29.62950412 17.87831311 30.26264601 15.29299643 29 11 C25.91566208 10.0983142 23.14658179 9.86531951 19.9375 9.875 C19.08027344 9.87242188 18.22304688 9.86984375 17.33984375 9.8671875 C14.84435799 9.90634865 14.84435799 9.90634865 12 11 Z M33 11 C30.70954986 15.81209901 30.70954986 15.81209901 30 21 C33.63 21.66 37.26 22.32 41 23 C41 23.66 41 24.32 41 25 C39.906875 24.938125 38.81375 24.87625 37.6875 24.8125 C34.11995134 24.67467344 34.11995134 24.67467344 32.0625 26.3125 C30.73359337 28.09076108 30.73359337 28.09076108 31 31 C30.10539062 30.9071875 29.21078125 30.814375 28.2890625 30.71875 C21.62188206 30.32070938 16.70933216 30.37297832 11.125 34.3125 C8.41455823 36.80486025 7.17659146 38.28977425 6.28515625 41.875 C6.08589262 47.20174255 6.08589262 47.20174255 8.38671875 51.83984375 C10.02710571 53.28798464 10.02710571 53.28798464 12.625 52.75 C14.9312407 52.22254355 14.9312407 52.22254355 16 51 C16.391875 52.093125 16.78375 53.18625 17.1875 54.3125 C18.34773394 56.97995374 19.0726345 58.06478212 21.3125 60.0625 C24.03278995 61.25834407 24.03278995 61.25834407 27.125 60.4375 C30.18189605 58.90905198 31.44696219 58.01979575 33 55 C33.25124826 52.33238236 33.25124826 52.33238236 33 50 C35.97 50.33 38.94 50.66 42 51 C42.04125 51.9075 42.0825 52.815 42.125 53.75 C42.74831571 57.20864889 42.74831571 57.20864889 45.6875 59.5 C48.89113403 61.31574252 48.89113403 61.31574252 52.1875 60.5 C55.14079833 58.92490756 56.38223554 57.89494693 58 55 C58.144375 54.29875 58.28875 53.5975 58.4375 52.875 C58.7159375 51.946875 58.7159375 51.946875 59 51 C59.639375 50.690625 60.27875 50.38125 60.9375 50.0625 C63.19110082 49.13519055 63.19110082 49.13519055 64.3125 46.75 C65.53435941 41.86256235 64.35329359 38.38917659 61.9375 34.125 C61.298125 33.09375 60.65875 32.0625 60 31 C59.01 31.33 58.02 31.66 57 32 C57 32.66 57 33.32 57 34 C55.02 34 53.04 34 51 34 C51.226875 33.2575 51.45375 32.515 51.6875 31.75 C52.37086128 28.54102212 52.37086128 28.54102212 49 25 C53.95 25.99 53.95 25.99 59 27 C62.18383322 22.77819663 62.18383322 22.77819663 62 18 C52.35567219 15.56106216 42.70368668 13.19329904 33 11 Z " fill="#000000" transform="translate(0,0)"/>
<path d="M0 0 C2.01822917 0.06510417 4.03645833 0.13020833 6.0546875 0.1953125 C6.0546875 2.1753125 6.0546875 4.1553125 6.0546875 6.1953125 C2.0946875 6.1953125 -1.8653125 6.1953125 -5.9453125 6.1953125 C-2.99816662 0.30102075 -2.99816662 0.30102075 0 0 Z " fill="#000000" transform="translate(17.9453125,34.8046875)"/>
<path d="M0 0 C1.32 0.66 2.64 1.32 4 2 C3.67 2.99 3.34 3.98 3 5 C1.68 5 0.36 5 -1 5 C-0.67 3.35 -0.34 1.7 0 0 Z " fill="#000000" transform="translate(24,50)"/>
<path d="M0 0 C0.99 0.33 1.98 0.66 3 1 C3 2.32 3 3.64 3 5 C1.68 4.67 0.36 4.34 -1 4 C-0.67 2.68 -0.34 1.36 0 0 Z " fill="#000000" transform="translate(49,50)"/>
</svg>
