<?xml version="1.0" encoding="UTF-8"?>
<svg version="1.1" xmlns="http://www.w3.org/2000/svg" width="64" height="58">
<path d="M0 0 C21.12 0 42.24 0 64 0 C64 19.14 64 38.28 64 58 C42.88 58 21.76 58 0 58 C0 51.73 0 45.46 0 39 C1.32065284 40.98097926 2.61315691 42.98105106 3.875 45 C6.56938434 48.80383672 8.60177164 50.53392388 13 52 C18.51772163 52.27819262 24.03524875 52.31347831 29.55932617 52.35009766 C31.3895337 52.36665181 33.21967671 52.39393492 35.04956055 52.43212891 C37.69613989 52.48704214 40.34120811 52.50879191 42.98828125 52.5234375 C43.80097977 52.54610687 44.61367828 52.56877625 45.45100403 52.59213257 C49.59472947 52.5768086 52.19609543 52.26503575 55.47338867 49.60791016 C58.60258343 46.37802723 59.92797098 44.42647763 60.0625 39.89453125 C59.80074682 35.01119842 58.90655758 32.12883019 55.54516602 28.34057617 C52.9025 26.047816 49.81248002 25.2274179 46.5 24.375 C45.07809501 23.97145982 43.65622047 23.56781235 42.234375 23.1640625 C41.52603516 22.97102539 40.81769531 22.77798828 40.08789062 22.57910156 C36.95228622 21.70940399 33.8538498 20.72609756 30.75 19.75 C20.32690477 16.51613004 20.32690477 16.51613004 9.75 18.1875 C5.10843873 21.24671084 2.78699269 24.787938 1 30 C0.67 30 0.34 30 0 30 C0 20.1 0 10.2 0 0 Z M26 4 C25.67 4.99 25.34 5.98 25 7 C24.36908447 6.99476318 23.73816895 6.98952637 23.08813477 6.98413086 C20.24626653 6.96342174 17.40441412 6.95035934 14.5625 6.9375 C13.56927734 6.92912109 12.57605469 6.92074219 11.55273438 6.91210938 C10.60849609 6.90888672 9.66425781 6.90566406 8.69140625 6.90234375 C7.81685791 6.89710693 6.94230957 6.89187012 6.04125977 6.88647461 C4.00559794 6.77215191 4.00559794 6.77215191 3 8 C2.83333333 10.5 2.83333333 10.5 3 13 C4.57353391 14.57353391 6.16439878 14.12766926 8.34765625 14.140625 C19.01445281 14.32811064 28.29906741 15.12879709 38.359375 18.71484375 C41.98329069 19.99410154 45.58130019 21.02113705 49.3125 21.9375 C50.85357422 22.32228516 50.85357422 22.32228516 52.42578125 22.71484375 C55.23810841 23.30560444 55.23810841 23.30560444 58 21 C58.51877086 18.0169597 58.51877086 18.0169597 58.4375 14.625 C58.45683594 13.48289062 58.47617187 12.34078125 58.49609375 11.1640625 C57.88998571 7.29833408 57.0699613 6.35995586 54 4 C50.90970709 3.45022167 50.90970709 3.45022167 47.484375 3.609375 C46.23398437 3.62226562 44.98359375 3.63515625 43.6953125 3.6484375 C42.39335938 3.68195313 41.09140625 3.71546875 39.75 3.75 C38.43257812 3.76804688 37.11515625 3.78609375 35.7578125 3.8046875 C32.50447692 3.85183729 29.25260375 3.91763956 26 4 Z " fill="#000000" transform="translate(0,0)"/>
<path d="M0 0 C1.16144531 0.30873047 2.32289062 0.61746094 3.51953125 0.93554688 C13.18583198 3.58958898 13.18583198 3.58958898 16.625 6.6875 C17.12109375 8.625 17.12109375 8.625 17.0625 10.6875 C17.06121094 11.368125 17.05992188 12.04875 17.05859375 12.75 C16.4635602 15.40888866 15.8695368 16.09604478 13.625 17.6875 C10.81363295 18.0102574 8.22808621 18.15552163 5.4140625 18.15625 C4.60891205 18.16386353 3.8037616 18.17147705 2.97421265 18.17932129 C1.27125141 18.19012314 -0.43177607 18.19297503 -2.13476562 18.18847656 C-4.73420509 18.1875059 -7.33067569 18.22908576 -9.9296875 18.2734375 C-11.58593136 18.278646 -13.24218545 18.28133267 -14.8984375 18.28125 C-16.05960587 18.3058429 -16.05960587 18.3058429 -17.24423218 18.33093262 C-21.36522532 18.27845253 -23.13280713 17.88948017 -26.34228516 15.21289062 C-27.348479 13.96282227 -27.348479 13.96282227 -28.375 12.6875 C-28.705 12.3575 -29.035 12.0275 -29.375 11.6875 C-29.95669863 7.07205511 -29.9991677 3.68616833 -27.5 -0.3125 C-20.29184788 -7.09664317 -8.34155852 -2.3475394 0 0 Z M-26.375 2.6875 C-27.72689749 6.57420528 -27.5864012 8.17821529 -26 12 C-24.62316472 14.51907634 -24.62316472 14.51907634 -23.375 15.6875 C-18.22259727 16.14916528 -18.22259727 16.14916528 -13.4375 14.6875 C-11.7120611 11.43961501 -11.03325068 8.31687778 -11.375 4.6875 C-12.70410468 1.89402778 -13.95000128 0.79619454 -16.375 -1.3125 C-20.86836299 -2.43584075 -23.3092054 -0.54861652 -26.375 2.6875 Z M-8.25 3.75 C-10.01773274 6.7944286 -9.74323916 9.2506012 -9.375 12.6875 C-8.39451062 14.75152685 -8.39451062 14.75152685 -6.375 15.6875 C-3.25688517 16.07726435 -1.26480433 16.19172245 1.5 14.625 C3.26773274 11.5805714 2.99323916 9.1243988 2.625 5.6875 C1.64451062 3.62347315 1.64451062 3.62347315 -0.375 2.6875 C-3.49311483 2.29773565 -5.48519567 2.18327755 -8.25 3.75 Z M5.6875 7.375 C4.31683776 9.70152222 4.31683776 9.70152222 5.375 12.375 C6.4272831 14.58505147 6.4272831 14.58505147 7.625 15.6875 C10.08309998 15.9375773 10.08309998 15.9375773 12.625 15.6875 C14.94063087 13.80249729 14.94063087 13.80249729 14.875 10.6875 C14.94063087 7.57250271 14.94063087 7.57250271 12.625 5.6875 C9.4120649 5.19320229 8.17306423 5.21015374 5.6875 7.375 Z " fill="#000000" transform="translate(37.375,27.3125)"/>
</svg>
